<svg id="Capa_1" enable-background="new 0 0 492.419 492.419" height="512" viewBox="0 0 492.419 492.419" width="512" xmlns="http://www.w3.org/2000/svg"><g><g><path d="m269.929 173.893v-47.161c-7.645.106-15.149.161-22.441.161-7.29 0-14.792-.055-22.434-.161v47.161h-177.625l5 58h390l5-58z" fill="#d9694b"/><path d="m342.429 124.809v337.022h60v-340.332c-18.592 1.361-39.223 2.464-60 3.31z" fill="#e07f66"/><path d="m382.429 122.819v339.012h20v-340.332c-6.444.471-13.145.91-20 1.32z" fill="#d9694b"/><path d="m342.429 408.831h60v53h-60z" fill="#79787d"/><path d="m382.429 408.831h20v53h-20z" fill="#58565b"/><path d="m92.429 121.49v340.34h60v-337.026c-20.78-.847-41.412-1.951-60-3.314z" fill="#e07f66"/><path d="m132.429 123.901v337.93h20v-337.027c-6.706-.273-13.388-.576-20-.903z" fill="#d9694b"/><path d="m92.429 408.831h60v53h-60z" fill="#79787d"/><path d="m132.429 408.831h20v53h-20z" fill="#58565b"/><path d="m425.358 79.838c-59.122 6.241-102.69 7.122-177.872 7.122-50.585 0-119.249-2.568-177.738-7.701-.058.123-.118.241-.176.364l-4.036 39.552c50.417 5.146 131.179 7.718 181.951 7.718 50.76 0 131.531-2.573 181.936-7.716l-3.978-38.982c-.027-.121-.059-.237-.087-.357z" fill="#e07f66"/><path d="m407.999 121.078c7.574-.589 14.77-1.222 21.424-1.901l-3.978-38.982c-.027-.12-.06-.236-.087-.356-6.788.717-13.364 1.359-19.814 1.941z" fill="#d9694b"/><path d="m247.486 86.96c-65.15 0-160.297-4.257-225.057-12.771l-12.031-42.03c136.721 19.636 335.383 19.735 472.133.292l-10.101 41.753c-86.707 11.392-131.297 12.756-224.944 12.756z" fill="#79787d"/><path d="m461.932 35.174-9.132 41.525c6.314-.773 12.843-1.603 19.629-2.495l10.101-41.753c-6.719.955-13.594 1.862-20.598 2.723z" fill="#58565b"/></g><g><g><path d="m284.21 210.772h-14.875v-15h14.875zm-29.875 0h-15v-15h15zm-30 0h-15v-15h15z" fill="#fff"/></g><path d="m478.51 80.97 13.909-57.5-10.944 1.556c-136.272 19.374-333.94 19.251-470.011-.291l-11.464-1.647 16.572 57.896 4.879.642c12.049 1.584 25.457 3.062 39.928 4.411l-4.065 39.838 7.461.762c6.281.641 13.038 1.243 20.154 1.807v37.949h-45.675l6.293 73h39.381v214.938h-67.374v15h459.875v-15h-67.5v-107.83h-15v22.542h-45v-237.034c15.504-.679 30.752-1.5 45-2.462v201.329h15v-91.483h39.381l6.294-73h-45.675v-37.94c7.153-.566 13.945-1.17 20.256-1.814l7.461-.762-4.02-39.396c12.402-1.369 25.539-2.969 39.781-4.84zm-39.256 100.423-3.706 43h-25.619v-43zm-294.325-49.389v269.327h-45v-17.288h26.406v-15h-26.406v-239.504c14.245.962 29.494 1.785 45 2.465zm190 92.389h-175v-43h72.625v-47.065c5.165.043 10.161.065 14.934.065 4.775 0 9.774-.022 14.941-.065v47.065h72.5zm-117.375-58h-57.625v-33.777c19.711.743 39.422 1.256 57.625 1.533zm-158.244 58-3.707-43h29.326v43zm40.619 229.938v-38h45v38zm60 0v-214.938h175v214.938zm190 0v-38h45v38zm45-70.288v17.288h-45v-17.288zm-60-217.65h-57.5v-32.244c18.165-.277 37.831-.788 57.5-1.529zm131.423-98.96c-84.561 10.924-130.127 12.027-218.866 12.027-18.367 0-39.325-.349-60.608-1.01l-.465 14.993c21.435.665 42.554 1.017 61.073 1.017 70.562 0 114.053-.695 171.222-6.41l2.488 24.388c-49.616 4.569-123.642 6.954-173.709 6.954-50.072 0-124.104-2.385-173.724-6.956l2.56-25.085c28.734 2.391 60.944 4.295 94.667 5.562l.563-14.989c-54.665-2.053-105.266-5.782-143.273-10.545l-7.504-26.217c133.078 17.643 318.766 17.735 451.88.21z"/></g></g></svg>